<svg xmlns="http://www.w3.org/2000/svg" version="1.1" xmlns:xlink="http://www.w3.org/1999/xlink" xmlns:svgjs="http://svgjs.dev/svgjs" width="1500" height="1500" viewBox="0 0 1500 1500"><rect width="1500" height="1500" fill="#dedede"></rect><g transform="matrix(0.6666666666666666,0,0,0.6666666666666666,250.00007343750008,187.66666666666674)"><svg viewBox="0 0 320 360" data-background-color="#dedede" preserveAspectRatio="xMidYMid meet" height="1687" width="1500" xmlns="http://www.w3.org/2000/svg" xmlns:xlink="http://www.w3.org/1999/xlink"><g id="tight-bounds" transform="matrix(1,0,0,1,0.000023499999997511622,0)"><svg viewBox="0 0 320 360" height="360" width="320"><g><svg></svg></g><g><svg viewBox="0 0 320 360" height="360" width="320"><g><path transform="translate(-74.99272,-51.79039) scale(4.65793,4.65793)" d="M20.6 59.9l0.8 1-0.4-1.3c-0.1-0.6-0.8 0.1-0.4 0.3M21.5 59.3c0.3 0.5 0.6 1 0.6 1.5 0 0.7 0.6 1 1.1 1.2-0.7-0.8-1.1-3-1.7-2.7M59.9 16.9c1.7 0 3.3-0.2 5.1 0.2 4.4 1.1 8.1 3.3 10.6 6.4l7 11.2c0.3 2.8 0.9 5.9 0.8 9.3 0.7 0 0.6-1 1.4-1.2-0.8 2-1.2 4.5-1.4 7.4-0.5-1.6 0-4 0.1-5.3-0.7 1.1-1.1 0.3-1.1-0.2 0.1-0.8-0.3-0.7-0.6-1-1.1-1-1.8-2.1-2.6-3.8 0.5-1.3 0.6-3.2-1-4.2-0.5-0.3-1.1-0.8-1.4-1.6-0.4-1.1-1.1-2.4-0.9-4.1 0.1-0.5-1.5 1.1-2.4 0.4-3.9-2.7-7.8-5.8-12.5-8.4-2.5 0-4.3-0.9-5.2-2-0.8-1-0.2-2.3 1-2.4 0.7 0 1.5-0.2 2.1 0.2 0.1-0.4 0.5-0.9 1-0.9M50 14.6l0.2 0.1c1 0.2 1.5 1.6 2.6 1.1 0 0.7 0.1 1.4-0.1 1.9-0.3 0.8-1.2 0.8-1.9 0.8-6.7-0.4-10.6 2.4-14.7 4.8-1.1 0.7-2.3 1.2-3.2 2.1-4.3 4-9 7.7-10.1 15.1l-0.9 8.2c-0.1 0.9-1.1 1.8-0.9 2.9l0.7 4.9c-0.7-0.7-1.1 0.2-0.9 0.6 0.1 0.3 0.5 1.3 1.1 0.4 0.8 1.5 1.6 4.4 2.7 5.7 3.4 4 7.8 7.6 11.4 11.2 0.9-0.2 1.6-0.2 1.8-0.8 0.3 0.6-0.3 1.2-0.8 1.3 1.6 1 3.4 1.9 5.8 2.1 3.1 0.2 6 0.7 8.7 1.4 1.4-0.4 2.8-0.6 4.3-0.7 0.5 0 0.8-0.8 1.4-1l0.1-1c0.6 0.9 0.5-0.3 0.1-0.9 0.7 0.6 0.9 1.1 1.2 1.5 0-0.3 0.8-1.4 0.8-0.1l0.2-1.3c0.3-0.2 0.4 1.1 0.7 0.2 0.3-0.9 0.9-0.2 1.5-0.5-0.2 0.4-0.1 1.2 0.6 0.7l0.8-0.7c0.5 1.2 1.3 0.7 1.7 0.5 4.4-2.8 8.8-6.1 13-9.4l-0.1 1.3 0.5-1.6c0.5 0.5 0.9 0.1 1.1-0.2 0.6-1 1.4-2 2.7-2.9-1.6 4.3-3.5 7.7-5.9 10.5l-1 1.2c0 0.7-0.2 1.6-1 1.7-0.4 0.1-1.2-0.2-1.8 0.4-0.3 0.4 0.7 1.2-0.1 0.6-0.7-0.5-1.4 0-2.2 0.2-0.6 0.2 0.4 0.8 0.6 1.2 0.2 0.4 0.4 0.8 0.3 1.3l-1.1-1.2c-1.3 0.7-2.1 2-3.2 3-0.5 0.4-0.3 1.1-0.3 1.7-0.7 0-1.5-0.2-1.9 0.2-0.3 0.4-0.2 1-0.2 1.6-1-0.1-1.1-1.6-2-1.3-0.9 0.2-1.9 0.3-2.7 0.8 0.6 1.2-1 0.5-0.8 0.7-1.5-0.9-2.8-1.6-4.4-1-3.4-1.1-7.6-0.6-10.7-0.2 0-0.5 0.1-1-0.1-1.1-0.2 0.5-0.8 0.3-0.7 0.3-1.9-1.3-3.8-2.1-5.8-3.2-1.8 0.2-3.5-0.7-4-1.2-1.4-1.3-3-0.6-4.3-0.9-2.8-0.7-3.8-3.6-4.1-5.6-0.2-1-1-1.4-1.3-1.3-1.3-4.2-3.3-8-4.9-11.9-0.4-1-0.3-2-0.3-3.1 0.5 0.2 1 0.1 0.9-0.6-0.5-3.3-1.7-5.8-3-8.2 0.7-3.4 0.8-7.4 2.4-10.4 1.4-2.7 4-4.1 5.8-6.4 0.6-0.8 0.6-1.9 1.2-2.6 2-2 4-4.1 6.2-5.9 1-0.8 2.2 0 3.7-0.3 0.5-1.8 2.5-3.4 4.4-2.9 0.8 0.2 2.4-1.9 2.9-2.1 0.8-0.3 0.4 0.8 0.4 1.5 1.9-1.5 4.5-2.3 6.9-3.2" fill="#ff4136" fill-rule="nonzero" stroke="none" stroke-width="1" stroke-linecap="butt" stroke-linejoin="miter" stroke-miterlimit="10" stroke-dasharray="" stroke-dashoffset="0" font-family="none" font-weight="none" font-size="none" text-anchor="none" style="mix-blend-mode: normal" data-fill-palette-color="tertiary"></path></g><g transform="matrix(1,0,0,1,64,132.73027549514563)"><svg viewBox="0 0 192 94.53944900970873" height="94.53944900970873" width="192"><g><svg viewBox="0 0 192 94.53944900970873" height="94.53944900970873" width="192"><g><svg viewBox="0 0 192 94.53944900970873" height="94.53944900970873" width="192"><g transform="matrix(1,0,0,1,0,57.141390757281556)"><svg viewBox="0 0 192 37.398058252427184" height="37.398058252427184" width="192"><g id="textblocktransform"><svg viewBox="0 0 192 37.398058252427184" height="37.398058252427184" width="192" id="textblock"><g><svg viewBox="0 0 192 37.398058252427184" height="37.398058252427184" width="192"><g transform="matrix(1,0,0,1,0,0)"><svg width="192" viewBox="3.25 -36.5 247.17 48.150000000000006" height="37.398058252427184" data-palette-color="#f11637"><path d="M23.7-23.65L23.75-2.45Q23.75 11.65 12 11.65L12 11.65Q8.4 11.65 5.93 10.35 3.45 9.05 3.45 6.25L3.45 6.25Q3.45 4.85 4.28 3.9 5.1 2.95 6.45 2.95L6.45 2.95Q7.8 2.95 8.4 3.7L8.4 3.7Q7.75 4.1 7.45 4.78 7.15 5.45 7.15 6.05L7.15 6.05Q7.15 8 8.58 8.97 10 9.95 12 9.95L12 9.95Q16.1 9.95 18.05 6.85 20 3.75 20-2.4L20-2.4Q20-4.05 20.15-6L20.15-6Q19.1-2.95 16.9-1.25 14.7 0.45 11.5 0.45L11.5 0.45Q7.65 0.45 5.8-1.98 3.95-4.4 3.9-10.05L3.9-10.05 3.9-19.75Q3.9-23.2 3.25-25.15L3.25-25.15Q4.35-26.05 5.6-26.05L5.6-26.05Q6.6-26.05 7.23-25.45 7.85-24.85 7.85-23.8L7.85-23.8 7.9-10.55Q7.9-5.95 8.97-3.88 10.05-1.8 12.55-1.8L12.55-1.8Q15.6-1.8 17.7-4.73 19.8-7.65 19.8-13.7L19.8-13.7Q19.8-20 19.7-21.9 19.6-23.8 19.1-25.15L19.1-25.15Q20.15-26.05 21.4-26.05L21.4-26.05Q22.4-26.05 23.05-25.4 23.7-24.75 23.7-23.65L23.7-23.65ZM53.8-3.65Q54.35-2.9 54.35-2.1L54.35-2.1Q54.35-1 53.32-0.25 52.3 0.5 50.85 0.5L50.85 0.5Q48.7 0.5 47.6-1 46.5-2.5 46.5-5.7L46.5-5.7 46.5-7.15Q44.85-3.6 42.02-1.53 39.2 0.55 35.85 0.55L35.85 0.55Q32.95 0.55 31.27-1.03 29.6-2.6 29.6-5.25L29.6-5.25Q29.6-8.2 31.85-10.25 34.1-12.3 37.9-13.35L37.9-13.35Q41.25-14.25 44.85-14.25L44.85-14.25Q45.85-14.25 46.3-14.2L46.3-14.2 46.3-15.5Q46.3-19.95 44.82-22.1 43.35-24.25 39.95-24.25L39.95-24.25Q37.75-24.25 36.25-23.3 34.75-22.35 34.75-20.2L34.75-20.2Q34.75-19.05 35.27-18.05 35.8-17.05 36.9-16.65L36.9-16.65Q36.1-15.65 34.5-15.65L34.5-15.65Q32.85-15.65 31.8-16.98 30.75-18.3 30.75-20.05L30.75-20.05Q30.75-22.95 33.3-24.5 35.85-26.05 40.3-26.05L40.3-26.05Q45.45-26.05 47.9-23.4 50.35-20.75 50.35-15.25L50.35-15.25 50.35-5.25Q50.35-2.6 52.15-2.6L52.15-2.6Q52.55-2.6 53.05-2.88 53.55-3.15 53.8-3.65L53.8-3.65ZM37.45-2.25Q39.45-2.25 41.52-3.73 43.6-5.2 44.97-7.6 46.35-10 46.4-12.6L46.4-12.6 45.25-12.65Q43.5-12.65 41.7-12.38 39.9-12.1 38.65-11.6L38.65-11.6Q36.45-10.8 35.2-9.4 33.95-8 33.95-6.1L33.95-6.1Q33.95-4.45 34.8-3.35 35.65-2.25 37.45-2.25L37.45-2.25ZM79.14-5.7Q79.14-2.1 79.75-0.35L79.75-0.35Q78.75 0.55 77.44 0.55L77.44 0.55Q76.44 0.55 75.82-0.05 75.19-0.65 75.19-1.65L75.19-1.65 75.14-15.15Q75.14-19.55 73.97-21.7 72.8-23.85 69.94-23.85L69.94-23.85Q68.19-23.85 66.57-22.63 64.94-21.4 63.92-18.75 62.89-16.1 62.89-12.05L62.89-12.05Q62.89-5.6 62.99-3.65 63.09-1.7 63.59-0.35L63.59-0.35Q62.55 0.55 61.3 0.55L61.3 0.55Q60.24 0.55 59.62-0.1 58.99-0.75 58.99-1.85L58.99-1.85 58.95-34.3Q58.95-35.4 59.55-35.95 60.14-36.5 61.2-36.5L61.2-36.5Q61.95-36.5 62.59-36.23 63.24-35.95 63.59-35.6L63.59-35.6Q63.2-34.35 63.07-32.63 62.95-30.9 62.89-27.8L62.89-27.8 62.84-20.25Q63.95-23 66.09-24.53 68.25-26.05 71.09-26.05L71.09-26.05Q75.19-26.05 77.14-23.43 79.09-20.8 79.09-15.65L79.09-15.65 79.14-5.7ZM106.64-23.65L106.69-2.45Q106.69 11.65 94.94 11.65L94.94 11.65Q91.34 11.65 88.87 10.35 86.39 9.05 86.39 6.25L86.39 6.25Q86.39 4.85 87.22 3.9 88.04 2.95 89.39 2.95L89.39 2.95Q90.74 2.95 91.34 3.7L91.34 3.7Q90.69 4.1 90.39 4.78 90.09 5.45 90.09 6.05L90.09 6.05Q90.09 8 91.52 8.97 92.94 9.95 94.94 9.95L94.94 9.95Q99.04 9.95 100.99 6.85 102.94 3.75 102.94-2.4L102.94-2.4Q102.94-4.05 103.09-6L103.09-6Q102.04-2.95 99.84-1.25 97.64 0.45 94.44 0.45L94.44 0.45Q90.59 0.45 88.74-1.98 86.89-4.4 86.84-10.05L86.84-10.05 86.84-19.75Q86.84-23.2 86.19-25.15L86.19-25.15Q87.29-26.05 88.54-26.05L88.54-26.05Q89.54-26.05 90.17-25.45 90.79-24.85 90.79-23.8L90.79-23.8 90.84-10.55Q90.84-5.95 91.92-3.88 92.99-1.8 95.49-1.8L95.49-1.8Q98.54-1.8 100.64-4.73 102.74-7.65 102.74-13.7L102.74-13.7Q102.74-20 102.64-21.9 102.54-23.8 102.04-25.15L102.04-25.15Q103.09-26.05 104.34-26.05L104.34-26.05Q105.34-26.05 105.99-25.4 106.64-24.75 106.64-23.65L106.64-23.65ZM136.74-3.65Q137.29-2.9 137.29-2.1L137.29-2.1Q137.29-1 136.26-0.25 135.24 0.5 133.79 0.5L133.79 0.5Q131.64 0.5 130.54-1 129.44-2.5 129.44-5.7L129.44-5.7 129.44-7.15Q127.79-3.6 124.96-1.53 122.14 0.55 118.79 0.55L118.79 0.55Q115.89 0.55 114.21-1.03 112.54-2.6 112.54-5.25L112.54-5.25Q112.54-8.2 114.79-10.25 117.04-12.3 120.84-13.35L120.84-13.35Q124.19-14.25 127.79-14.25L127.79-14.25Q128.79-14.25 129.24-14.2L129.24-14.2 129.24-15.5Q129.24-19.95 127.76-22.1 126.29-24.25 122.89-24.25L122.89-24.25Q120.69-24.25 119.19-23.3 117.69-22.35 117.69-20.2L117.69-20.2Q117.69-19.05 118.21-18.05 118.74-17.05 119.84-16.65L119.84-16.65Q119.04-15.65 117.44-15.65L117.44-15.65Q115.79-15.65 114.74-16.98 113.69-18.3 113.69-20.05L113.69-20.05Q113.69-22.95 116.24-24.5 118.79-26.05 123.24-26.05L123.24-26.05Q128.39-26.05 130.84-23.4 133.29-20.75 133.29-15.25L133.29-15.25 133.29-5.25Q133.29-2.6 135.09-2.6L135.09-2.6Q135.49-2.6 135.99-2.88 136.49-3.15 136.74-3.65L136.74-3.65ZM120.39-2.25Q122.39-2.25 124.46-3.73 126.54-5.2 127.91-7.6 129.29-10 129.34-12.6L129.34-12.6 128.19-12.65Q126.44-12.65 124.64-12.38 122.84-12.1 121.59-11.6L121.59-11.6Q119.39-10.8 118.14-9.4 116.89-8 116.89-6.1L116.89-6.1Q116.89-4.45 117.74-3.35 118.59-2.25 120.39-2.25L120.39-2.25ZM159.93 0.65Q155.28 0.65 152.96-1.03 150.63-2.7 150.63-5.4L150.63-5.4Q150.63-6.65 151.23-7.43 151.83-8.2 153.13-8.2L153.13-8.2Q153.63-8.2 153.93-8.15L153.93-8.15Q153.78-7.55 153.78-6.95L153.78-6.95Q153.78-6.4 153.83-6.05L153.83-6.05Q153.93-3.85 155.66-2.55 157.38-1.25 160.28-1.25L160.28-1.25Q163.13-1.25 164.83-2.25 166.53-3.25 166.53-5.2L166.53-5.2Q166.53-7 165.23-8.05 163.93-9.1 161.13-10.35L161.13-10.35 159.53-11.1Q156.73-12.4 155.26-13.3 153.78-14.2 152.71-15.75 151.63-17.3 151.63-19.65L151.63-19.65Q151.63-22.9 154.18-24.5 156.73-26.1 160.63-26.1L160.63-26.1Q164.73-26.1 167.03-24.78 169.33-23.45 169.33-21.1L169.33-21.1Q169.33-19 167.48-18.8L167.48-18.8Q166.98-18.7 166.83-18.7L166.83-18.7Q166.53-18.7 166.03-18.8L166.03-18.8Q166.13-19.4 166.13-19.8L166.13-19.8Q166.13-20.45 165.98-20.9L165.98-20.9Q165.78-22.55 164.36-23.4 162.93-24.25 160.48-24.25L160.48-24.25Q158.23-24.25 156.78-23.43 155.33-22.6 155.33-20.8L155.33-20.8Q155.33-19.3 156.18-18.23 157.03-17.15 158.21-16.48 159.38-15.8 161.78-14.65L161.78-14.65 162.88-14.15Q165.33-13 166.81-12.13 168.28-11.25 169.31-9.85 170.33-8.45 170.33-6.5L170.33-6.5Q170.33-3.55 167.88-1.45 165.43 0.65 159.93 0.65L159.93 0.65ZM198.58-3.65Q199.13-2.9 199.13-2.1L199.13-2.1Q199.13-1 198.11-0.25 197.08 0.5 195.63 0.5L195.63 0.5Q193.48 0.5 192.38-1 191.28-2.5 191.28-5.7L191.28-5.7 191.28-7.15Q189.63-3.6 186.81-1.53 183.98 0.55 180.63 0.55L180.63 0.55Q177.73 0.55 176.06-1.03 174.38-2.6 174.38-5.25L174.38-5.25Q174.38-8.2 176.63-10.25 178.88-12.3 182.68-13.35L182.68-13.35Q186.03-14.25 189.63-14.25L189.63-14.25Q190.63-14.25 191.08-14.2L191.08-14.2 191.08-15.5Q191.08-19.95 189.61-22.1 188.13-24.25 184.73-24.25L184.73-24.25Q182.53-24.25 181.03-23.3 179.53-22.35 179.53-20.2L179.53-20.2Q179.53-19.05 180.06-18.05 180.58-17.05 181.68-16.65L181.68-16.65Q180.88-15.65 179.28-15.65L179.28-15.65Q177.63-15.65 176.58-16.98 175.53-18.3 175.53-20.05L175.53-20.05Q175.53-22.95 178.08-24.5 180.63-26.05 185.08-26.05L185.08-26.05Q190.23-26.05 192.68-23.4 195.13-20.75 195.13-15.25L195.13-15.25 195.13-5.25Q195.13-2.6 196.93-2.6L196.93-2.6Q197.33-2.6 197.83-2.88 198.33-3.15 198.58-3.65L198.58-3.65ZM182.23-2.25Q184.23-2.25 186.31-3.73 188.38-5.2 189.76-7.6 191.13-10 191.18-12.6L191.18-12.6 190.03-12.65Q188.28-12.65 186.48-12.38 184.68-12.1 183.43-11.6L183.43-11.6Q181.23-10.8 179.98-9.4 178.73-8 178.73-6.1L178.73-6.1Q178.73-4.45 179.58-3.35 180.43-2.25 182.23-2.25L182.23-2.25ZM208.38 0.5Q206.13 0.5 204.88-0.95 203.63-2.4 203.63-5.05L203.63-5.05 203.63-34.3Q203.63-35.35 204.28-35.93 204.93-36.5 205.98-36.5L205.98-36.5Q207.23-36.5 208.28-35.6L208.28-35.6Q207.88-34.3 207.75-32.25 207.63-30.2 207.63-25.85L207.63-25.85 207.63-5.25Q207.63-3.95 208.1-3.28 208.58-2.6 209.53-2.6L209.53-2.6Q210.08-2.6 210.6-2.88 211.13-3.15 211.38-3.65L211.38-3.65Q211.93-2.9 211.93-2.1L211.93-2.1Q211.93-0.95 210.91-0.23 209.88 0.5 208.38 0.5L208.38 0.5ZM237.43-5.7Q237.43-2.1 238.03-0.35L238.03-0.35Q237.03 0.55 235.73 0.55L235.73 0.55Q234.73 0.55 234.1-0.05 233.48-0.65 233.48-1.65L233.48-1.65 233.43-15.15Q233.43-19.55 232.25-21.7 231.08-23.85 228.23-23.85L228.23-23.85Q226.48-23.85 224.85-22.63 223.23-21.4 222.2-18.75 221.18-16.1 221.18-12.05L221.18-12.05Q221.18-5.6 221.28-3.65 221.38-1.7 221.88-0.35L221.88-0.35Q220.83 0.55 219.58 0.55L219.58 0.55Q218.53 0.55 217.9-0.1 217.28-0.75 217.28-1.85L217.28-1.85 217.23-34.3Q217.23-35.4 217.83-35.95 218.43-36.5 219.48-36.5L219.48-36.5Q220.23-36.5 220.88-36.23 221.53-35.95 221.88-35.6L221.88-35.6Q221.48-34.35 221.35-32.63 221.23-30.9 221.18-27.8L221.18-27.8 221.13-20.25Q222.23-23 224.38-24.53 226.53-26.05 229.38-26.05L229.38-26.05Q233.48-26.05 235.43-23.43 237.38-20.8 237.38-15.65L237.38-15.65 237.43-5.7ZM247.57-30Q246.47-30 245.67-30.8 244.88-31.6 244.88-32.7L244.88-32.7Q244.88-33.85 245.67-34.63 246.47-35.4 247.57-35.4L247.57-35.4Q248.72-35.4 249.5-34.63 250.28-33.85 250.28-32.7L250.28-32.7Q250.28-31.6 249.5-30.8 248.72-30 247.57-30L247.57-30ZM249.78-5.7Q249.78-2.05 250.42-0.35L250.42-0.35Q249.38 0.55 248.13 0.55L248.13 0.55Q247.13 0.55 246.5-0.05 245.88-0.65 245.88-1.65L245.88-1.65 245.82-19.8Q245.82-23.25 245.17-25.15L245.17-25.15Q246.22-26.05 247.47-26.05L247.47-26.05Q248.47-26.05 249.1-25.48 249.72-24.9 249.72-23.85L249.72-23.85 249.78-5.7Z" opacity="1" transform="matrix(1,0,0,1,0,0)" fill="#f11637" class="wordmark-text-0" data-fill-palette-color="primary" id="text-0"></path></svg></g></svg></g></svg></g></svg></g><g transform="matrix(1,0,0,1,73.64456865464632,0)"><svg viewBox="0 0 44.71086269070736 51.68411650485437" height="51.68411650485437" width="44.71086269070736"><g><svg xmlns="http://www.w3.org/2000/svg" xmlns:xlink="http://www.w3.org/1999/xlink" version="1.1" x="0" y="0" viewBox="17.3 12.2 65.4 75.6" style="enable-background:new 0 0 100 100;" xml:space="preserve" height="51.68411650485437" width="44.71086269070736" class="icon-icon-0" data-fill-palette-color="accent" id="icon-0"><path d="M50 12.2L17.3 31.1v37.8L50 87.8l32.7-18.9V31.1L50 12.2zM32.1 37.4L50 16l17 21.4H32.1zM67.3 39.4L50 70.4l-18.2-31H67.3zM48.1 71l-27.7-4.5 9.8-25.9L48.1 71zM68.9 40.7l10.7 25.9-27.7 4.5L68.9 40.7zM69.2 37.1L52.6 16l27 15.6L69.2 37.1zM29.8 37.1l-9.4-5.5 26.8-15.5L29.8 37.1zM28.8 38.8l-9.5 25V33.3L28.8 38.8zM49 73.2v11.7L20.9 68.7 49 73.2zM51 73.2l28.1-4.5L51 84.9V73.2zM70.3 38.8l10.5-5.6v30.9L70.3 38.8z" fill="#fa0e32" data-fill-palette-color="accent"></path></svg></g></svg></g><g></g></svg></g></svg></g></svg></g></svg></g><defs></defs></svg><rect width="320" height="360" fill="none" stroke="none" visibility="hidden"></rect></g></svg></g></svg>